<mxfile host="app.diagrams.net" modified="2024-04-08T09:15:17.784Z" agent="Mozilla/5.0 (X11; Ubuntu; Linux x86_64; rv:123.0) Gecko/20100101 Firefox/123.0" etag="DaErBTzfI1Hzv32OehD7" version="22.1.21" type="google">
  <diagram name="Page-1" id="YWp5ATKtUL7GylnlbYt-">
    <mxGraphModel grid="1" page="1" gridSize="10" guides="1" tooltips="1" connect="1" arrows="1" fold="1" pageScale="1" pageWidth="850" pageHeight="1100" math="0" shadow="0">
      <root>
        <mxCell id="0" />
        <mxCell id="1" parent="0" />
        <mxCell id="kDdwnhZTk2qffsxY2vRR-2" value="Platform" style="rounded=0;whiteSpace=wrap;html=1;fillColor=#dae8fc;strokeColor=#6c8ebf;dashed=1;" vertex="1" parent="1">
          <mxGeometry x="130" y="140" width="150" height="90" as="geometry" />
        </mxCell>
        <mxCell id="kDdwnhZTk2qffsxY2vRR-3" value="Game" style="rounded=0;whiteSpace=wrap;html=1;fillColor=#60a917;strokeColor=#2D7600;fontColor=#ffffff;" vertex="1" parent="1">
          <mxGeometry x="150" y="270" width="90" height="50" as="geometry" />
        </mxCell>
        <mxCell id="kDdwnhZTk2qffsxY2vRR-4" value="Task" style="rhombus;whiteSpace=wrap;html=1;fillColor=#ffcd28;gradientColor=#ffa500;strokeColor=#d79b00;" vertex="1" parent="1">
          <mxGeometry x="155" y="350" width="80" height="80" as="geometry" />
        </mxCell>
        <mxCell id="kDdwnhZTk2qffsxY2vRR-5" value="Points" style="ellipse;whiteSpace=wrap;html=1;fillColor=#e51400;fontColor=#ffffff;strokeColor=#B20000;" vertex="1" parent="1">
          <mxGeometry x="70" y="470" width="50" height="50" as="geometry" />
        </mxCell>
        <mxCell id="kDdwnhZTk2qffsxY2vRR-6" value="Coins" style="ellipse;whiteSpace=wrap;html=1;fillColor=#e3c800;fontColor=#000000;strokeColor=#B09500;" vertex="1" parent="1">
          <mxGeometry x="190" y="470" width="50" height="50" as="geometry" />
        </mxCell>
        <mxCell id="kDdwnhZTk2qffsxY2vRR-7" value="Strategy" style="rounded=0;whiteSpace=wrap;html=1;" vertex="1" parent="1">
          <mxGeometry x="310" y="270" width="90" height="50" as="geometry" />
        </mxCell>
        <mxCell id="kDdwnhZTk2qffsxY2vRR-9" value="Wallet" style="shape=process;whiteSpace=wrap;html=1;backgroundOutline=1;" vertex="1" parent="1">
          <mxGeometry x="320" y="390" width="120" height="60" as="geometry" />
        </mxCell>
        <mxCell id="kDdwnhZTk2qffsxY2vRR-10" value="User" style="shape=umlActor;verticalLabelPosition=bottom;verticalAlign=top;html=1;outlineConnect=0;" vertex="1" parent="1">
          <mxGeometry x="360" y="490" width="30" height="60" as="geometry" />
        </mxCell>
        <mxCell id="kDdwnhZTk2qffsxY2vRR-17" value="" style="endArrow=none;dashed=1;html=1;dashPattern=1 3;strokeWidth=2;rounded=0;" edge="1" parent="1">
          <mxGeometry width="50" height="50" relative="1" as="geometry">
            <mxPoint x="155" y="650" as="sourcePoint" />
            <mxPoint x="240" y="650" as="targetPoint" />
          </mxGeometry>
        </mxCell>
        <mxCell id="kDdwnhZTk2qffsxY2vRR-18" value="Transaction" style="text;html=1;align=center;verticalAlign=middle;resizable=0;points=[];autosize=1;strokeColor=none;fillColor=none;" vertex="1" parent="1">
          <mxGeometry x="145" y="618" width="90" height="30" as="geometry" />
        </mxCell>
      </root>
    </mxGraphModel>
  </diagram>
</mxfile>
